<?xml version="1.0" encoding="UTF-8" standalone="no"?>
<!-- Created with Inkscape (http://www.inkscape.org/) -->

<svg
   xmlns:dc="http://purl.org/dc/elements/1.1/"
   xmlns:cc="http://creativecommons.org/ns#"
   xmlns:rdf="http://www.w3.org/1999/02/22-rdf-syntax-ns#"
   xmlns:svg="http://www.w3.org/2000/svg"
   xmlns="http://www.w3.org/2000/svg"
   xmlns:sodipodi="http://sodipodi.sourceforge.net/DTD/sodipodi-0.dtd"
   xmlns:inkscape="http://www.inkscape.org/namespaces/inkscape"
   width="702.59161"
   height="434.61047"
   id="svg3038"
   version="1.1"
   inkscape:version="0.48.4 r9939"
   sodipodi:docname="logo2.svg">
  <defs
     id="defs3" />
  <sodipodi:namedview
     inkscape:document-units="mm"
     id="base"
     pagecolor="#000000"
     bordercolor="#666666"
     borderopacity="1.0"
     inkscape:pageopacity="0.4627451"
     inkscape:pageshadow="2"
     inkscape:zoom="0.98994949"
     inkscape:cx="369.42775"
     inkscape:cy="178.95739"
     inkscape:current-layer="layer1"
     showgrid="false"
     units="mm"
     fit-margin-top="0"
     fit-margin-left="0"
     fit-margin-right="0"
     fit-margin-bottom="0"
     inkscape:window-width="1280"
     inkscape:window-height="738"
     inkscape:window-x="-8"
     inkscape:window-y="-8"
     inkscape:window-maximized="1" />
  <metadata
     id="metadata4">
    <rdf:RDF>
      <cc:Work
         rdf:about="">
        <dc:format>image/svg+xml</dc:format>
        <dc:type
           rdf:resource="http://purl.org/dc/dcmitype/StillImage" />
        <dc:title></dc:title>
      </cc:Work>
    </rdf:RDF>
  </metadata>
  <g
     inkscape:label="Layer 1"
     inkscape:groupmode="layer"
     id="layer1"
     transform="translate(-24.546578,-554.26772)">
    <path
       style="fill:#ffffff;stroke:none"
       id="path3194"
       d="m 24.546636,829.15113 c 1.801783,-1.46248 3.449737,-3.10494 5.029227,-4.80243 2.55095,-2.83794 4.766668,-5.95993 6.838288,-9.15848 2.778925,-4.39683 5.015112,-9.10676 7.302485,-13.76998 2.693489,-5.69939 5.257426,-11.46069 7.627166,-17.30234 2.252533,-5.5728 4.127899,-11.27924 5.802967,-17.04828 1.51483,-5.4037 2.722687,-10.88558 3.837253,-16.38358 1.112921,-5.12231 1.821416,-10.2974 2.214024,-15.51982 0.432237,-5.82998 0.19099,-11.66164 -0.278083,-17.47836 -0.574292,-5.99418 -1.14036,-11.98901 -1.787189,-17.97584 -0.554276,-4.99523 -0.986225,-10.00121 -1.716861,-14.9747 -0.546678,-2.3929 -0.596369,-5.04408 -1.772481,-7.252 -0.236819,-0.24194 -0.130627,-0.2555 -0.321113,0.006 5.975216,-0.0153 11.950614,-0.0947 17.92565,-0.0458 0.07185,5.9e-4 -0.08031,0.12223 -0.09848,0.19175 -0.07842,0.30001 -0.108154,0.8349 -0.132572,1.1206 -0.149031,2.25597 -0.186958,4.51805 -0.230362,6.77805 -0.135218,3.22971 0.0802,6.45357 0.335086,9.67139 0.246965,4.03275 0.785447,8.03689 1.313399,12.03995 0.645872,4.68652 1.285582,9.37193 2.044077,14.04178 0.820466,5.35637 1.620963,10.71617 2.403408,16.07834 0.94266,5.69044 1.867112,11.38407 2.823296,17.07224 0.984835,5.90238 2.220011,11.75649 3.590572,17.57992 1.483501,5.83526 3.037463,11.64845 4.770002,17.4147 1.694697,5.46799 3.648398,10.85008 5.746354,16.17482 1.996634,4.8336 4.307721,9.51571 7.003391,13.99505 2.17337,3.69857 4.87951,7.03026 7.83914,10.12078 2.56397,2.54005 5.48762,4.61205 8.60464,6.40479 0.49297,0.20806 0.97775,0.43673 1.47893,0.6242 1.12838,0.42208 1.85506,0.63205 3.05628,0.76122 0.51118,0.055 2.05524,0.0641 1.54112,0.0623 -17.45123,-0.0608 -21.2266,0.20037 -14.41742,-0.20706 3.50595,-0.36338 6.48251,-2.04733 9.19129,-4.19461 3.43905,-3.00277 5.68221,-6.98291 7.69042,-11.01516 2.50862,-5.20997 4.03681,-10.78921 5.39358,-16.38617 1.82368,-7.59387 2.20044,-15.4013 2.56535,-23.16983 0.36165,-8.81794 0.0746,-17.64198 -0.32431,-26.45257 -0.40023,-8.5346 -1.08918,-17.05404 -1.82485,-25.56549 -0.60599,-7.14189 -1.19585,-14.28825 -2.06973,-21.40319 -0.71486,-5.63589 -1.73757,-11.226 -2.88653,-16.78761 -0.12794,-0.63684 -1.30497,-5.91381 -2.07494,-5.927 -0.14062,-0.002 -0.19542,0.20231 -0.29312,0.30347 5.90247,0.0665 11.80458,0.21721 17.7074,0.19935 0.0983,-3e-4 -0.054,-0.25357 -0.15228,-0.25248 -0.0994,10e-4 -0.12382,0.16088 -0.153,0.25587 -0.23625,0.76905 -0.17127,1.64049 -0.15699,2.4283 0.15724,3.38626 0.52026,6.75897 0.81264,10.13544 0.39022,5.11248 1.24179,10.1689 2.07566,15.22256 0.79282,4.7445 1.79102,9.45021 2.90962,14.12746 1.06609,4.48082 2.0327,8.98425 3.02837,13.48104 0.96582,4.49618 2.11662,8.94057 3.54118,13.31266 1.74698,5.47728 3.81446,10.84567 5.8689,16.21328 2.25043,5.99343 5.02672,11.76311 7.76711,17.54193 2.6133,5.17396 5.21332,10.35773 8.14771,15.35872 2.56094,4.25229 5.48323,8.25035 8.76256,11.97126 2.71688,3.22045 6.09596,5.4163 9.98559,6.92011 1.55527,0.39915 2.09109,0.61812 3.70571,0.70658 0.63337,0.0347 2.537,-0.023 1.90272,-0.0299 -25.59615,-0.27746 -18.12849,1.14344 -11.56609,-1.04055 4.91078,-2.39789 7.88878,-6.85933 10.49796,-11.4675 3.19324,-6.25101 5.19886,-13.00939 7.05364,-19.75223 1.95666,-7.2482 3.36643,-14.61916 4.33617,-22.05926 0.9446,-7.67328 1.21342,-15.41003 1.27584,-23.1345 -0.0337,-7.92967 -0.96374,-15.80659 -1.96263,-23.66001 -0.97083,-7.22232 -2.36278,-14.37528 -3.94122,-21.48638 -1.52196,-6.47985 -3.24697,-12.90777 -5.13303,-19.29023 -1.62155,-5.29474 -3.05847,-10.64277 -4.46437,-15.998 -0.91477,-3.18784 -1.67474,-6.50631 -3.3398,-9.40723 -0.47925,-0.57039 -0.19972,-0.526 -0.7447,-0.40789 5.87936,0.0777 11.76029,0.0766 17.63809,0.23295 0.10177,0.003 -0.16958,0.13372 -0.19991,0.2309 -0.13942,0.44674 -0.15875,1.67738 -0.17504,2.01279 0.0128,4.62544 0.56308,9.22674 1.13143,13.81022 0.87735,6.82397 2.36476,13.55154 3.9526,20.23988 1.58152,6.67441 3.5479,13.24468 5.67424,19.76268 1.90497,5.74213 4.00205,11.41511 6.20527,17.04838 2.06662,5.33286 4.32545,10.58899 6.61175,15.83062 2.36049,5.35392 4.90315,10.62215 7.42481,15.90097 2.21442,4.64365 4.50499,9.24722 7.08776,13.69773 2.12237,3.64304 4.56144,7.06831 7.24133,10.31784 2.3428,2.77595 5.17255,4.84405 8.55668,6.1275 1.44343,0.35886 1.83448,0.5307 3.32359,0.60603 0.55851,0.0283 2.23668,-0.02 1.67748,-0.0251 -26.89785,-0.24763 -18.6752,0.8148 -12.27833,-0.77169 3.93688,-1.25928 7.38325,-3.51392 10.5726,-6.08726 3.51253,-2.98388 5.98793,-6.79507 7.9457,-10.9169 2.11516,-4.84559 2.77987,-10.04144 3.08012,-15.26535 0.19585,-4.62911 -0.0592,-9.31315 -1.55122,-13.72298 -1.13851,-2.58687 -3.27856,-4.05536 -5.85318,-4.97595 -0.59793,-0.1493 -1.47486,-0.39862 -2.1006,-0.43796 -0.32387,-0.0204 -1.29697,0.0426 -0.97248,0.0452 34.38463,0.275 20.47512,-0.87398 14.9617,0.31406 -2.24423,0.74917 -3.9606,2.41777 -5.56675,4.08534 -1.83433,1.99577 -3.11803,4.37623 -4.22157,6.82993 -1.30471,3.09752 -2.13822,6.35898 -2.63875,9.67497 -0.43068,3.69186 -0.31113,7.41424 0.11624,11.09779 0.37492,3.24456 1.03076,6.44396 2.04438,9.5479 0.96051,2.97988 2.49295,5.67996 4.20769,8.27764 1.62919,2.32387 3.62229,4.34147 5.74916,6.20592 2.03291,1.85734 3.99187,2.6523 6.66328,3.0907 -1.7911,0.37681 5.59458,0.0942 3.51138,0.0834 -31.45723,-0.16386 -20.12499,1.26009 -14.49009,-0.47004 2.17674,-0.98268 3.67203,-2.77853 4.80396,-4.82311 1.36605,-2.72139 1.52276,-5.72283 1.49261,-8.70705 -0.0878,-3.28905 -0.88263,-6.4906 -1.7093,-9.6565 -0.81188,-3.25787 -2.1123,-6.37349 -3.61185,-9.36935 -1.28347,-2.40206 -2.98668,-4.77799 -2.61762,-7.61328 0.28979,-0.76976 0.82126,-1.81933 1.82105,-1.83021 10.86566,-0.11834 13.67487,-1.36345 20.75205,0.63479 2.11438,0.6303 4.27029,1.07914 6.46594,1.29034 6.45762,0.15125 3.29968,0.071 -15.78603,-0.047 -0.29919,-0.002 0.59879,-0.006 0.89714,-0.028 0.90191,-0.0679 1.59786,-0.2884 2.40912,-0.67119 1.69785,-1.04612 2.84398,-2.65381 3.84808,-4.33413 1.11951,-2.08422 1.69535,-4.38523 2.15721,-6.68825 0.4898,-2.65194 0.79856,-5.33306 1.0756,-8.0142 0.26658,-3.14856 0.57058,-6.29225 1.08622,-9.4107 0.38762,-3.01461 1.25935,-5.84342 2.76148,-8.47947 1.09398,-1.86211 2.65031,-3.14903 4.6284,-3.9506 13.65068,-0.20632 17.4966,-4.65136 22.27849,4.33976 1.57809,3.465 2.86674,7.05496 4.06501,10.66616 1.46856,4.09833 2.73703,8.26133 3.92704,12.44746 1.34529,4.69943 2.92109,9.32467 4.65492,13.8935 1.46227,4.05501 3.27203,7.95993 5.81512,11.44851 1.87718,2.58205 4.37266,4.3256 7.24961,5.60741 1.08655,0.33792 1.33279,0.49466 2.47426,0.53622 0.41349,0.0151 1.65345,-0.059 1.2397,-0.0627 -29.65342,-0.26421 -19.90327,0.85034 -13.92324,-0.45088 2.32408,-0.67943 4.37065,-1.97945 6.28543,-3.42549 1.72185,-1.39611 3.16244,-3.09528 4.46312,-4.88015 1.66093,-2.49085 2.72159,-5.27463 3.60311,-8.11592 1.20993,-4.23223 1.93577,-8.58085 2.51134,-12.93838 0.52188,-4.35799 0.87673,-8.73357 1.21807,-13.10868 0.19812,-2.16863 0.29595,-4.35149 0.62345,-6.5064 1.17043,-6.38237 0.0631,-1.12329 18.30854,-0.0511 0.0144,8.4e-4 0.36234,3.19302 0.3938,3.52708 0.16132,3.13433 0.60382,6.24208 0.96972,9.35658 0.56031,4.42947 1.53077,8.79354 2.57352,13.1305 0.9197,3.98792 2.28321,7.83938 4.09125,11.50666 1.64424,3.13544 3.81217,5.03445 7.02223,6.4118 0.46346,0.15351 0.92153,0.32438 1.39039,0.46052 1.02733,0.29829 1.68771,0.45251 2.75966,0.47158 0.44901,0.008 1.79392,-0.0758 1.34486,-0.08 -15.89094,-0.14675 -21.78911,0.50085 -15.0266,-0.18947 2.82173,-0.44254 5.13512,-2.01072 7.23995,-3.84634 2.43136,-2.34603 4.29238,-5.19187 6.02792,-8.0692 1.81125,-3.06281 3.14751,-6.35493 4.26971,-9.7212 1.36957,-4.40623 2.13647,-8.96489 2.83493,-13.51608 0.9293,-5.95019 1.32942,-11.95832 1.60751,-17.96815 0.1923,-7.91139 0.15297,-15.82803 -0.11442,-23.73685 -0.23476,-9.34484 -1.13864,-18.63383 -2.42689,-27.88568 -1.48813,-10.16465 -3.46556,-20.24441 -5.49236,-30.31221 -1.72947,-8.12641 -3.40731,-16.26383 -5.2376,-24.36834 -0.91059,-4.28537 -2.21034,-8.4691 -3.32645,-12.70108 -1.98748,-8.61704 6.11493,-3.06468 18.06284,-2.91267 0.67621,1.11379 1.235,2.25682 1.69617,3.47466 0.9247,2.34033 2.09938,4.57505 3.11763,6.87988 1.50332,3.21413 2.96656,6.44835 4.26768,9.75 1.63449,3.71784 2.87975,7.58107 4.21969,11.40904 1.47981,4.21509 2.68637,8.51445 3.73237,12.85531 1.10392,4.66739 1.94436,9.39221 2.78383,14.11278 0.91423,4.56189 1.79849,9.12957 2.67363,13.69907 0.77607,4.06784 1.5412,8.13769 2.29709,12.20935 0.78048,3.86897 1.42337,7.76353 2.08411,11.65432 0.78026,3.89197 1.58148,7.77904 2.28071,11.68663 0.61784,3.49607 1.16259,7.00458 1.63401,10.52327 0.44129,3.18624 0.76006,6.38598 1.04231,9.58948 0.21126,2.92161 0.0391,5.8546 -0.6025,8.71161 -0.41406,1.61878 -1.25162,3.03667 -2.36925,4.2606 -6.06408,5.04704 -16.78242,5.54807 -19.82921,-1.53561 -0.59139,-1.42383 -0.91062,-2.9434 -1.12072,-4.4652 -0.21558,-2.03144 -0.11044,-4.05797 0.65771,-5.95833 0.68877,-1.05522 1.69521,-1.75762 3.01205,-1.76407 12.62458,-0.0618 14.44969,-1.2674 22.46841,1.12913 3.46353,1.06054 6.74807,2.59484 9.99503,4.17958 2.84757,1.41907 5.46106,3.24307 8.06308,5.05973 2.51718,1.73015 4.81106,3.75592 7.10746,5.76269 2.16547,1.92493 4.29284,3.89574 6.53235,5.73567 2.07339,1.71171 4.48416,2.92514 6.83526,4.19834 1.41205,0.73743 2.72834,1.67834 4.18701,2.32465 0.0934,0.0569 0.17717,0.20726 0.28031,0.17075 0.11085,-0.0392 0.26269,-0.32945 0.14537,-0.32143 -6.10501,0.41769 -12.1896,1.09805 -18.29121,1.56291 -0.36042,0.0275 -1.08877,-0.48805 -1.41841,-0.61176 -1.76581,-0.80412 -3.49486,-1.68613 -5.25738,-2.49757 -2.3893,-1.23664 -4.70021,-2.6022 -7.02229,-3.95918 -2.76398,-1.50274 -5.53142,-2.99545 -8.28409,-4.51859 -3.12398,-1.90456 -6.16599,-3.92864 -9.12466,-6.0803 -3.26105,-2.24724 -6.23101,-4.84971 -9.15777,-7.50616 -3.14882,-2.80384 -5.78089,-6.08748 -8.27361,-9.46885 -2.44001,-3.24302 -4.47844,-6.72607 -6.25825,-10.36442 -1.63842,-3.94385 -2.35653,-8.15868 -2.79294,-12.38186 -0.26139,-3.9496 -0.30623,-7.92765 0.19922,-11.85771 0.92304,-4.29776 3.78455,-5.12021 7.67724,-5.82722 7.96346,-0.7952 2.68924,-0.32547 20.95461,-0.19674 2.16336,0.0153 4.3299,0.74821 6.30363,1.55332 2.85246,1.24146 5.34469,3.15593 7.59636,5.27638 2.05606,1.94641 3.64251,4.25583 4.74933,6.85137 1.0111,2.59168 0.97131,5.3393 0.5943,8.04873 -0.43743,2.62539 -1.31002,5.11539 -2.45577,7.50697 -1.18291,2.31093 -2.56971,4.5132 -4.04839,6.64473 -1.49126,2.04085 -3.09926,3.99475 -4.734,5.92164 -1.5114,1.74711 -3.08864,3.40111 -4.24672,5.4109 -1.25071,2.47116 -0.12076,4.39884 1.45208,6.37576 3.31184,3.59025 7.48497,6.24758 11.56974,8.8683 3.99045,2.52107 8.16085,4.74024 12.39449,6.82071 3.66415,1.82938 7.4637,3.35194 11.24434,4.91649 3.28421,1.39451 6.65933,2.5476 10.08687,3.53126 3.2054,0.87782 6.43295,1.68649 9.71112,2.24007 6.19239,0.321 15.93837,0.67364 -12.8559,0.0181 -0.50184,-0.0114 0.99784,-0.12105 1.48926,-0.22344 1.37139,-0.28576 1.47645,-0.40834 2.75153,-0.96167 3.372,-1.91187 5.0259,-5.35816 6.3998,-8.81932 1.76608,-5.16152 2.72917,-10.54937 3.56042,-15.92674 0.93917,-6.13748 1.05731,-12.35795 1.21648,-18.55304 -0.0575,-4.57113 0.32499,-9.40102 -1.85048,-13.56748 -0.83507,-1.05866 -1.76745,-1.6618 -3.14381,-1.66372 -0.40565,-5.6e-4 -1.61381,0.13776 -1.20824,0.1454 16.28821,0.3068 21.67636,-1.44214 15.15648,0.51293 -3.18672,1.71419 -4.74977,5.0914 -6.18019,8.24717 -1.72481,3.78135 -2.63713,7.77307 -2.94218,11.89887 -0.0633,4.49685 0.93439,8.91345 2.10073,13.22887 1.04063,3.50389 2.81011,6.66612 5.0886,9.50172 1.94165,2.20096 4.36335,3.58022 7.11966,4.47195 -1.5706,0.52565 6.08284,0.4135 4.18829,0.40409 -28.38319,-0.14083 -19.36895,0.78447 -13.21339,-0.55211 3.23037,-0.83027 5.84348,-2.80287 8.22405,-5.05219 2.74158,-2.78104 4.45001,-6.20825 5.6038,-9.89294 1.11533,-3.81361 1.42967,-7.77269 1.43246,-11.72663 -0.0996,-3.13438 -0.77029,-6.19464 -1.73427,-9.16609 -0.81861,-2.10237 -1.75794,-4.25359 -3.96981,-5.10652 -5.31167,-0.65142 -23.02932,-0.27552 14.15609,-0.0656 0.53953,0.003 -1.07699,0.0806 -1.61078,0.1592 -1.45742,0.32149 -2.57514,1.14847 -3.23554,2.47754 -0.37939,1.88781 1.21238,3.85125 2.2655,5.30279 2.37743,3.12484 5.58852,5.42381 8.72125,7.72531 4.0044,2.94931 8.18381,5.6567 12.54644,8.04348 3.59655,1.90849 7.44497,3.19715 11.50258,3.54376 7.85621,-0.23541 -4.51133,0.15796 -13.89641,-0.17423 -0.6083,-0.0215 1.20604,-0.19322 1.78751,-0.37318 0.65853,-0.2038 1.29703,-0.47406 1.91791,-0.77358 1.80674,-0.87159 2.60166,-1.508 4.28314,-2.65056 5.85895,-4.37865 9.91427,-10.42649 13.64791,-16.60089 3.49439,-5.9446 6.43269,-12.18698 9.0636,-18.55384 1.55301,-3.84955 2.79224,-7.81603 4.00507,-11.78297 0.50658,-1.55814 0.98944,-3.12358 1.42645,-4.7027 1.77919,-6.3435 -25.92916,-4.296 18.13863,0.58355 0.28687,0.0318 -0.10965,0.56677 -0.16006,0.85096 -0.22464,1.26654 -0.19583,1.16162 -0.38588,2.53297 -0.46782,3.80347 -0.70995,7.63015 -0.94136,11.45385 -0.24847,3.93382 -0.41186,7.87273 -0.21668,11.81142 0.15048,3.61714 0.70679,7.18373 1.65229,10.67372 0.81613,3.09972 2.34104,5.89294 4.11985,8.531 1.66019,2.36661 3.79715,3.8713 6.5606,4.62732 6.09257,0.42657 15.59031,0.60521 -12.9463,0.0499 -0.58369,-0.0114 1.16556,-0.0878 1.7423,-0.17833 1.6554,-0.25982 1.91287,-0.42317 3.50347,-0.96096 4.22771,-1.56022 7.07186,-4.66629 9.55121,-8.28757 3.08203,-4.80371 4.97083,-10.18743 6.59938,-15.61828 2.00873,-7.10588 3.23356,-14.38778 4.09641,-21.71072 0.81321,-7.72838 0.63885,-15.50393 0.43389,-23.25706 -0.15596,-6.99524 -0.88262,-13.95117 -1.8706,-20.87198 -1.07929,-7.20656 -2.62472,-14.33084 -4.44125,-21.38422 -2.0017,-7.73589 -4.12155,-15.44067 -6.16749,-23.165 -1.93292,-7.22336 -3.71303,-14.48808 -5.7424,-21.68526 -1.31849,-4.08103 -2.20527,-8.48025 -4.73548,-12.02873 -0.1737,-0.115 -0.31321,-0.33157 -0.5211,-0.34501 -0.15398,-0.01 -0.51681,0.28702 -0.36251,0.28787 5.92361,0.0325 11.84636,-0.18595 17.77006,-0.19237 0.0583,-6e-5 -0.0309,0.1153 -0.024,0.17315 0.0576,0.48257 0.12255,0.965 0.21667,1.44179 0.14241,0.72131 0.3283,1.43336 0.49244,2.15004 1.93708,6.34521 4.291,12.55293 6.65094,18.74999 2.86699,7.77711 6.13876,15.39225 9.3843,23.01589 3.87604,9.15912 7.8531,18.27064 12.11254,27.25845 4.28812,8.94255 9.19734,17.5559 14.47049,25.94823 4.8702,7.52333 10.53469,14.45362 16.57884,21.05139 4.61353,4.95712 9.34359,9.80893 14.9787,13.60007 2.17424,1.2679 4.47161,2.40687 6.95332,2.93437 3.50759,0.74556 27.95677,0.46081 -11.0387,0.11179 3.84505,-0.35971 7.24657,-2.0108 10.07189,-4.5887 2.70764,-2.893 3.24412,-6.51332 3.16537,-10.31738 -0.34438,-5.94761 -3.17576,-10.56595 -6.63939,-15.22172 -1.73507,-1.84459 -3.93428,-4.36415 -6.02252,-5.81375 -2.99436,-2.07861 -7.44373,-3.94994 -10.73655,-5.2502 -5.76886,-2.278 -9.10898,-3.23022 -15.12371,-5.1575 -20.94082,-6.27726 -42.20073,-11.43246 -63.43699,-16.59902 -14.41453,-3.48701 -28.86899,-6.80371 -43.28563,-10.28147 0,0 15.44796,-2.07016 15.44796,-2.07016 l 0,0 c 14.27392,3.50228 28.57795,6.87877 42.86236,10.33809 21.50282,5.22817 43.04847,10.3585 64.28592,16.59611 8.58763,2.69883 19.58336,5.69843 26.98836,10.99006 2.13054,1.52249 4.46585,4.23675 6.23569,6.1521 3.65436,4.99262 6.67435,9.93683 7.07237,16.27428 0.11811,4.2291 -0.41477,8.32019 -3.15217,11.73478 -2.78683,3.1236 -6.17066,4.97815 -10.27624,5.8339 -6.5137,0.068 -13.02704,0.20776 -19.54109,0.20405 -4.0897,-0.002 -7.85984,-2.08059 -11.20265,-4.2053 -5.46209,-4.05601 -10.16272,-8.96381 -14.71032,-14.00713 -5.96831,-6.72461 -11.56652,-13.76875 -16.40182,-21.36384 -5.24528,-8.47491 -10.13956,-17.15963 -14.46152,-26.14627 -4.24323,-9.02043 -8.17082,-18.1789 -12.17147,-27.30847 -3.38458,-7.62346 -6.73032,-15.26543 -9.65196,-23.08167 -2.41843,-6.27969 -4.80572,-12.57309 -7.00972,-18.93184 -0.0931,-0.31987 -1.67774,-5.36386 -1.1301,-5.42948 16.27799,-1.95061 15.2361,-5.73434 19.02507,0.49312 2.02077,3.94166 2.97671,8.30782 4.20158,12.53748 1.9161,7.21888 3.63108,14.49002 5.56772,21.70384 2.05002,7.73389 4.17476,15.44729 6.24271,23.17626 1.82297,7.11988 3.41216,14.30327 4.50899,21.57438 0.97892,6.98852 1.74788,14.00849 1.81738,21.07418 0.16376,7.8325 0.26511,15.68628 -0.49021,23.49485 -0.83296,7.40958 -2.01551,14.7844 -3.93084,21.99967 -1.54355,5.60411 -3.3997,11.14887 -6.4389,16.14516 -2.42337,3.90002 -5.17447,7.44693 -9.48396,9.37561 -8.44215,3.91512 -18.65324,3.30052 -27.57335,1.15974 -2.78445,-1.2627 -4.98966,-3.18281 -6.64397,-5.7765 -1.7673,-2.84323 -3.24796,-5.84352 -4.08951,-9.10212 -0.90128,-3.62151 -1.44395,-7.30814 -1.60374,-11.04081 -0.18117,-4.0017 -0.0103,-8.00417 0.25542,-11.99942 0.2222,-3.85279 0.45841,-7.70487 0.77746,-11.55108 0.10887,-1.22377 0.28911,-3.34283 0.30264,-3.34324 6.04367,-0.18037 12.09151,0.22995 18.13785,0.21215 0.044,-1.3e-4 -0.12035,-0.7096 -0.13168,-0.007 -0.69405,1.49232 -1.05732,3.12394 -1.72265,4.62993 -1.35894,4.008 -2.71908,8.02203 -4.36519,11.92332 -2.76098,6.43015 -5.80544,12.74134 -9.34389,18.7844 -3.74067,6.30912 -7.68219,12.55404 -13.36185,17.32764 -9.75798,7.475 -13.34064,6.31542 -29.05545,4.85809 -4.05075,-0.73447 -7.89612,-2.16082 -11.4665,-4.22745 -4.32319,-2.52263 -8.49486,-5.29061 -12.52599,-8.25877 -3.2959,-2.43732 -6.64272,-4.91324 -9.05078,-8.28765 -1.36846,-2.07454 -2.8994,-4.49152 -2.43467,-7.0785 0.62641,-1.78656 1.66928,-3.21124 3.38883,-4.09181 7.09619,-2.99979 16.16098,-2.85441 23.11398,0.39033 2.00025,1.66359 3.14743,3.95005 3.94684,6.40162 0.92812,3.16136 1.58282,6.40115 1.63428,9.70866 -0.0397,4.12097 -0.40379,8.24321 -1.50418,12.23069 -1.13305,3.95067 -2.81676,7.65493 -5.56046,10.77152 -2.36524,2.49442 -5.00089,4.74643 -8.26276,5.9742 -8.38605,2.75929 -17.90016,2.40913 -26.32778,-0.0248 -2.80319,-1.24995 -5.26191,-3.00413 -7.14482,-5.46447 -2.21675,-3.11563 -4.00323,-6.4825 -4.98911,-10.20142 -1.13043,-4.5148 -2.12346,-9.12164 -2.09727,-13.79867 0.27557,-4.32293 1.15377,-8.52852 2.92115,-12.50723 1.47539,-3.48183 3.11544,-7.07863 6.11285,-9.51972 6.52998,-4.25116 1.28531,-1.15767 20.23076,-1.1778 2.0263,-0.002 3.51551,1.88941 4.41752,3.43366 1.79934,4.58518 1.59481,9.5127 1.5197,14.36876 -0.19869,6.26189 -0.30014,12.55079 -1.18901,18.76235 -0.79768,5.49473 -1.76378,10.9875 -3.40908,16.30053 -1.35958,3.80772 -2.99636,7.57519 -6.29058,10.11438 -7.79443,4.82279 -17.86257,2.72049 -26.68769,1.69432 -3.26369,-0.67347 -6.49988,-1.47748 -9.69341,-2.43178 -3.41816,-1.0671 -6.78135,-2.2925 -10.0686,-3.71625 -3.77704,-1.57287 -7.53713,-3.18957 -11.18396,-5.04981 -4.2118,-2.1522 -8.36544,-4.42763 -12.32025,-7.02863 -4.20499,-2.78608 -8.51081,-5.59972 -11.80991,-9.4714 -1.94961,-2.76362 -2.93881,-5.08458 -1.64695,-8.3992 1.12046,-2.18339 2.60777,-4.01364 4.29254,-5.78876 1.63134,-1.87753 3.23325,-3.78529 4.73034,-5.77193 1.51056,-2.00343 2.82963,-4.15428 4.04459,-6.34798 1.1299,-2.20566 1.9891,-4.49878 2.44224,-6.94626 0.36904,-2.3817 0.39073,-4.77743 -0.58703,-7.03164 -1.12922,-2.34578 -2.71183,-4.38936 -4.66852,-6.11436 -2.24123,-1.91114 -4.65154,-3.64062 -7.47638,-4.5804 -1.53059,-0.44238 -3.00921,-0.79511 -4.60407,-0.92105 -0.5318,-0.042 -2.13239,-0.0619 -1.59896,-0.0669 20.94257,-0.19678 20.65333,-0.20232 14.14423,-0.0187 -1.48212,0.12958 -4.98047,0.40717 -6.20409,1.26886 -0.7418,0.52239 -0.98075,1.49703 -1.28445,2.26639 -0.58136,3.77621 -0.55644,7.6179 -0.2959,11.42396 0.43334,4.02034 1.12339,8.048 2.81631,11.7542 1.76757,3.52479 3.82273,6.88597 6.18603,10.04709 2.48926,3.28963 5.18338,6.41246 8.31025,9.12041 2.90322,2.60516 5.90033,5.09655 9.12286,7.30324 2.98477,2.07538 6.02366,4.07489 9.18598,5.87205 2.77201,1.52933 5.59216,2.97089 8.33471,4.55329 2.31966,1.34517 4.66726,2.64227 7.09211,3.79023 1.79561,0.85227 3.60718,1.67238 5.38054,2.57014 7.66503,5.11947 -12.1815,7.81862 -16.5968,3.08938 -1.29272,-0.83898 -2.64351,-1.58813 -3.97694,-2.35941 -2.39002,-1.33875 -4.76736,-2.7272 -6.82944,-4.55046 -2.19719,-1.89259 -4.34255,-3.8447 -6.51576,-5.76469 -2.27502,-1.96189 -4.57202,-3.90598 -7.07975,-5.56953 -2.56337,-1.75886 -5.17389,-3.46261 -7.99379,-4.78915 -3.20609,-1.53248 -6.48347,-2.94678 -9.93022,-3.84965 -0.57746,-0.136 -1.14964,-0.29681 -1.73239,-0.408 -0.55176,-0.10527 -2.22942,-0.2275 -1.66786,-0.24078 5.38869,-0.12738 10.78073,-0.0174 16.17026,-0.10204 0.70423,-0.0111 -1.40316,-0.23803 -2.10516,-0.18106 -0.21298,0.0173 -0.41178,0.11432 -0.61767,0.17149 -1.10674,1.20335 -0.71483,3.25601 -0.64098,4.76281 0.22878,1.32194 0.52104,2.65802 1.18234,3.83997 0.17296,0.23378 0.22077,0.41242 0.5191,0.46849 0.0888,0.0167 0.36042,-0.0227 0.27006,-0.0237 -6.97382,-0.0756 -23.33973,-2.35231 -16.96066,0.1353 1.31929,-0.13024 1.98089,-1.81189 2.46912,-2.84443 0.74224,-2.63816 0.87094,-5.38606 0.70214,-8.11486 -0.28327,-3.17638 -0.62065,-6.34788 -1.0268,-9.51104 -0.46386,-3.49065 -0.96368,-6.97692 -1.56802,-10.44641 -0.69588,-3.91111 -1.47962,-7.80456 -2.26321,-11.69886 -0.6723,-3.88274 -1.32091,-7.7696 -2.09127,-11.63458 -0.73296,-4.06767 -1.48207,-8.13248 -2.23165,-12.1971 -0.86985,-4.57558 -1.70129,-9.15842 -2.62515,-13.72369 -0.82427,-4.68568 -1.70412,-9.36525 -2.8002,-13.9959 -1.07683,-4.28358 -2.31104,-8.52367 -3.79288,-12.68659 -1.32876,-3.81233 -2.63365,-7.63192 -4.27394,-11.32617 -1.33757,-3.26987 -2.80829,-6.48208 -4.33993,-9.66551 -1.08896,-2.3163 -2.31855,-4.56482 -3.30775,-6.92615 -0.44012,-0.94454 -0.92597,-2.04235 -1.7803,-2.67807 5.95097,-0.0522 11.90756,0.10708 17.85292,-0.1565 0.21147,-0.009 -0.0137,-0.42529 -0.0571,-0.63247 -0.0268,-0.12798 0.0299,1.88352 0.0483,1.78704 0.83348,4.26626 1.9836,8.46504 2.77208,12.74167 1.62725,8.13316 3.21655,16.27388 4.8769,24.40043 1.96468,10.10562 3.86666,20.22486 5.40893,30.40523 1.34929,9.30926 2.46637,18.64619 2.70025,28.06239 0.30034,7.95165 0.32697,15.91161 0.28857,23.86828 -0.2113,6.06839 -0.47478,12.14288 -1.39311,18.15445 -0.65631,4.64349 -1.38283,9.2912 -2.67102,13.80908 -1.08395,3.50881 -2.42184,6.92416 -4.24374,10.12415 -1.77186,3.01275 -3.65624,5.98619 -6.01454,8.58126 -2.12878,2.08302 -4.40416,3.95634 -7.29314,4.88006 -7.41992,1.72823 -1.56984,0.46752 -20.27661,0.42688 -1.94341,-0.004 -3.81475,-0.85509 -5.54637,-1.62802 -3.11427,-1.80352 -5.49758,-4.30122 -7.04144,-7.58804 -1.73674,-3.81458 -3.06466,-7.78688 -3.98648,-11.87902 -1.03743,-4.4067 -2.01977,-8.832 -2.67709,-13.31391 -0.44079,-3.12105 -0.89659,-6.23985 -1.17805,-9.38035 -1.15346,-8.52838 -3.81403,-2.905 17.38767,-3.24153 0.0428,-6.8e-4 -0.0843,-0.0154 -0.12651,-0.0231 -0.68069,1.99981 -0.61934,4.1901 -0.96974,6.25363 -0.46553,4.38952 -0.83512,8.78893 -1.35422,13.17283 -0.56583,4.4432 -1.24344,8.88147 -2.37631,13.22074 -0.84779,3.01246 -1.82479,5.96939 -3.46762,8.65827 -1.23547,2.01138 -2.79231,3.79385 -4.48927,5.43263 -1.95197,1.63698 -4.05292,3.07789 -6.39497,4.1075 -7.92654,2.9431 -17.42984,2.88365 -25.22214,-0.34425 -2.88239,-1.62223 -5.3432,-3.72576 -7.19209,-6.50289 -2.42449,-3.69965 -4.22928,-7.72137 -5.70519,-11.88828 -1.70826,-4.62671 -3.30406,-9.29517 -4.69722,-14.02739 -1.22063,-4.15609 -2.51618,-8.29038 -3.98575,-12.36618 -1.20905,-3.50197 -2.43685,-7.02686 -4.21159,-10.29028 -0.59436,-0.89702 -1.20371,-1.97986 -2.21913,-2.48345 -0.73548,-0.36475 -2.17117,-0.15821 -1.45875,-0.16434 5.66933,-0.0488 11.33853,-0.11237 17.00779,-0.16855 -1.90463,-0.0608 -3.47407,0.96147 -4.59158,2.46715 -1.60377,2.35829 -2.48055,4.94431 -2.83392,7.78167 -0.52095,3.07873 -0.8142,6.18275 -1.0307,9.29683 -0.27359,2.73513 -0.57433,5.46943 -1.04647,8.17876 -0.47534,2.4867 -1.06127,4.95954 -2.12809,7.26974 -1.03908,1.91004 -2.19081,3.76588 -3.8751,5.18374 -0.96708,0.80527 -2.09732,1.67069 -3.4362,1.68223 -17.691,0.15258 -12.5813,0.77092 -19.67395,-0.14635 -2.1864,-0.3783 -4.33198,-0.91979 -6.48261,-1.4619 -0.68232,-0.12675 -2.75333,-0.29696 -2.0594,-0.30586 22.61698,-0.2899 21.70443,1.01392 15.24077,-0.48137 -0.86242,1.68481 1.78491,4.84603 2.35501,6.39637 1.4844,3.12574 2.79114,6.35075 3.61251,9.72021 0.86697,3.30476 1.64837,6.65885 1.72875,10.09127 0.0385,3.2463 -0.0935,6.53128 -1.43821,9.54717 -1.09156,2.43484 -2.6353,4.5038 -4.83992,6.05483 -7.19499,4.2104 -16.48914,1.86498 -24.5097,0.72832 -2.58769,-0.76847 -4.79261,-2.12291 -6.74082,-4.00442 -2.12802,-2.02441 -4.11637,-4.19739 -5.72322,-6.66751 -1.73778,-2.75441 -3.22886,-5.64101 -4.22498,-8.75446 -0.97887,-3.22851 -1.6475,-6.54021 -1.99426,-9.89832 -0.38741,-3.83249 -0.51033,-7.70251 -0.0998,-11.54025 0.46817,-3.46864 1.29039,-6.88111 2.55294,-10.15198 1.09962,-2.63147 2.37339,-5.20219 4.212,-7.40758 1.60514,-1.90633 3.41792,-3.69206 5.56811,-4.9774 7.16216,-3.528 16.32367,-2.60078 23.68162,0.22999 2.70206,1.47252 4.77072,3.51631 5.78749,6.49771 1.28628,4.66789 1.56288,9.51977 1.33827,14.34692 -0.30486,5.43072 -0.93955,10.84022 -3.03034,15.91909 -1.92679,4.36846 -4.37481,8.428 -7.91609,11.69983 -3.18516,2.78143 -6.63507,5.19476 -10.57323,6.8047 -7.71862,2.77606 -12.30645,1.23499 -22.83799,1.20622 -1.7521,-0.005 -3.46326,-0.60494 -5.07239,-1.22314 -3.36539,-1.68913 -6.25855,-4.00378 -8.59819,-6.97634 -2.62971,-3.36253 -5.02708,-6.88992 -7.13469,-10.60573 -2.51776,-4.51398 -4.78998,-9.15369 -6.98619,-13.83189 -2.50408,-5.29799 -5.0115,-10.59417 -7.38302,-15.95343 -2.33205,-5.25299 -4.59005,-10.54087 -6.65267,-15.90625 -2.18233,-5.66237 -4.20179,-11.38528 -6.08993,-17.15265 -2.10458,-6.56701 -4.02645,-13.1932 -5.62065,-19.90438 -1.58465,-6.75326 -3.07204,-13.53933 -4.09832,-20.40284 -0.70186,-4.66996 -1.27356,-9.3589 -1.55614,-14.07506 -0.003,-0.20593 -0.14683,-3.57 0.23211,-3.60253 15.71654,-1.34947 15.79277,-5.78481 19.01962,0.73834 1.33774,3.14351 2.10619,6.48221 2.9479,9.78338 1.37735,5.33559 2.77966,10.66503 4.3301,15.95351 1.82879,6.42932 3.52497,12.89531 5.02748,19.40939 1.54034,7.16781 2.95591,14.36505 3.86477,21.64476 0.96817,7.93279 1.85341,15.88463 1.95373,23.8858 -0.05,7.79278 -0.33743,15.59965 -1.264,23.34249 -0.95669,7.51797 -2.34408,14.97016 -4.29366,22.2989 -1.86,6.85888 -3.87547,13.72028 -6.93188,20.15754 -2.56332,4.91468 -5.54119,9.64271 -10.35844,12.64111 -0.66726,0.36053 -1.29355,0.81025 -2.00179,1.0816 -0.63066,0.24162 -1.30201,0.42366 -1.97711,0.44285 -6.48436,0.18427 -12.97325,0.17774 -19.46021,0.16636 -1.96136,-0.003 -3.87494,-0.61826 -5.68263,-1.3089 -3.89073,-1.83121 -7.24761,-4.37947 -9.98259,-7.72827 -3.23152,-3.85489 -6.11253,-7.97496 -8.67748,-12.30471 -2.87417,-5.0652 -5.45414,-10.28795 -8.03085,-15.50923 -2.72924,-5.8293 -5.52205,-11.63487 -7.78645,-17.66703 -2.09716,-5.40002 -4.22044,-10.7942 -6.03465,-16.29778 -1.45642,-4.42716 -2.65399,-8.92343 -3.6066,-13.48711 -0.97854,-4.48904 -1.93969,-8.9821 -2.99818,-13.45329 -1.10552,-4.72007 -2.10764,-9.46258 -2.86364,-14.25309 -0.81918,-5.09996 -1.6113,-10.20338 -2.18349,-15.33838 -0.35366,-3.41435 -0.80279,-6.81931 -1.08465,-10.24063 -0.47145,-9.64441 3.78917,-5.73236 18.66063,-4.65368 1.12063,2.26903 1.49624,4.77994 1.95528,7.24906 1.00788,5.61816 1.9842,11.24625 2.66295,16.91525 0.83786,7.13584 1.28803,14.30999 1.86983,21.46995 0.66542,8.5367 1.3512,17.07504 1.72471,25.63058 0.38495,8.86379 0.71756,17.73567 0.36811,26.60756 -0.36151,7.86316 -0.57875,15.77759 -2.29329,23.4932 -1.31433,5.71832 -2.78065,11.42769 -5.24857,16.77673 -2.00688,4.22529 -4.20258,8.43257 -7.57506,11.7499 -2.68045,2.44938 -5.63275,4.44239 -9.23303,5.26124 -8.85245,1.35158 -18.82645,2.37798 -26.9055,-2.01159 -3.12294,-1.96185 -6.043538,-4.21963 -8.584651,-6.90666 -2.918284,-3.24309 -5.586127,-6.70446 -7.742392,-10.50882 -2.643047,-4.59315 -4.928345,-9.3713 -6.935587,-14.27697 -2.086957,-5.37225 -3.991928,-10.81448 -5.69706,-16.32043 -1.725836,-5.80201 -3.262079,-11.65619 -4.763221,-17.51999 -1.367407,-5.85975 -2.617107,-11.7477 -3.600319,-17.68547 -0.992703,-5.69782 -1.916477,-11.40791 -2.86586,-17.11312 -0.790428,-5.35496 -1.634657,-10.70193 -2.476129,-16.04903 -0.769307,-4.689 -1.47759,-9.38682 -2.139124,-14.09234 -0.541508,-4.03417 -1.121592,-8.06382 -1.396309,-12.12812 -0.278064,-3.27243 -0.569185,-6.54914 -0.442608,-9.8376 0.01015,-2.29108 0.0079,-4.58235 0.04602,-6.8732 0.0064,-0.13899 0.04884,-2.04586 0.163325,-2.05394 19.351669,-1.36625 16.261641,-6.29086 18.510965,0.22806 0.703375,2.50803 0.983367,5.1104 1.353513,7.68171 0.638125,4.99943 1.056905,10.01996 1.561094,15.03422 0.598234,6.00124 1.14813,12.00699 1.714273,18.01134 0.512005,5.90361 0.800933,11.82477 0.380499,17.74708 -0.351957,5.3031 -1.040783,10.55879 -2.194037,15.75268 -1.162962,5.53924 -2.402789,11.06325 -3.924357,16.517 -1.674083,5.83266 -3.565936,11.60023 -5.844373,17.22801 -2.377233,5.87308 -4.979743,11.65059 -7.601254,17.41803 -2.249338,4.71067 -4.398208,9.48589 -7.076824,13.97412 -2.015446,3.31255 -4.281248,6.48225 -6.759206,9.46513 -1.509907,1.7512 -3.10451,3.40307 -4.703195,5.06553 0,0 -18.038655,-1.5591 -18.038655,-1.5591 z"
       inkscape:connector-curvature="0" />
    <path
       style="fill:#ffffff;stroke:none"
       id="path3217"
       d="m 100.18406,988.03901 c 1.20834,-2.0575 2.671,-3.94623 3.97693,-5.94138 2.61988,-3.96566 4.20228,-8.46577 5.63708,-12.96217 1.91449,-6.52005 3.1119,-13.21864 4.24119,-19.9102 1.17434,-7.01582 1.51173,-14.13043 1.75287,-21.22829 0.22763,-6.83037 0.0129,-13.66578 -0.27557,-20.49068 -0.23914,-5.34575 -0.50207,-10.69577 -1.28172,-15.9937 -0.10097,-0.55569 -0.1894,-1.1138 -0.3029,-1.66707 -0.0731,-0.3565 -0.15863,-0.71071 -0.2568,-1.06115 -0.17727,-0.63279 -0.34599,-0.77826 -0.27,-0.78004 18.41515,-0.43209 16.41359,-5.98468 18.46515,0.5119 1.43513,3.59222 3.41908,6.93596 5.28397,10.316 2.91926,5.4773 5.67699,11.03908 8.45495,16.58893 2.92324,5.81401 5.60304,11.74361 8.25289,17.68559 2.81197,6.26588 5.66534,12.51305 8.50653,18.7657 2.38866,5.04939 4.61255,10.17328 6.93585,15.25255 1.72239,3.80143 3.35299,7.6513 5.37866,11.30447 1.09076,1.61281 1.83492,3.46019 3.01173,5.01453 0.29552,0.17066 0.16729,0.19547 0.39129,-0.0205 -6.01448,0.15885 -12.0274,0.39557 -18.04343,0.47655 -0.0958,0.001 -0.31072,-1.12524 -0.47877,-1.73111 -1.1129,-3.41126 -2.46723,-6.73968 -3.73061,-10.09763 -2.43025,-5.89868 -4.55612,-11.90921 -6.55548,-17.96506 -2.30375,-7.17962 -4.35762,-14.43898 -6.37322,-21.70423 -2.09389,-6.90038 -3.51992,-13.97252 -4.97217,-21.0281 -1.22698,-5.99001 -2.38263,-11.99472 -3.26238,-18.04619 -0.58358,-4.28037 -0.64967,-8.59679 -0.31296,-12.89714 0.34361,-2.89934 1.26492,-5.67285 2.4261,-8.33693 0.79325,-1.72925 2.03225,-3.05505 3.6473,-4.02613 7.55757,-3.04456 16.58219,-3.58731 22.72685,1.55797 2.74312,2.55902 5.05241,5.51982 7.38183,8.44648 2.7753,3.50166 5.079,7.33205 7.47584,11.09309 2.56969,4.03813 4.90587,8.21456 7.19958,12.41321 2.10284,3.90102 3.74621,8.02072 5.69501,11.99709 3.79238,7.5845 4.65166,3.73477 -16.91294,2.83494 -0.0521,-0.002 -0.80415,-1.71197 -1.12859,-2.43787 -1.99078,-4.49131 -3.95495,-8.98952 -5.76139,-13.55863 -1.98643,-5.27783 -3.56472,-10.69343 -5.02838,-16.13532 -1.30992,-4.79911 -2.30251,-9.67214 -3.10212,-14.5796 -0.55896,-4.11578 -0.74291,-8.26554 -0.75159,-12.41484 -0.0792,-3.20467 0.42134,-6.31212 1.64717,-9.26869 1.30094,-2.47653 3.48041,-4.05172 5.94572,-5.22973 7.8863,-2.8613 17.22648,-3.12291 25.04032,0.0418 3.13934,1.58445 6.05125,3.56716 8.76323,5.79656 3.19144,2.67217 5.58279,6.02485 7.74978,9.53883 2.59978,4.67589 5.0876,9.41274 7.4401,14.21757 2.58646,5.17675 4.97314,10.44791 7.44078,15.68097 2.80783,5.75892 5.45799,11.59125 8.11161,17.42213 2.49453,5.43887 5.03395,10.85711 7.59705,16.26397 2.0913,4.53365 4.31649,9.003 6.57817,13.45346 1.9488,3.80494 3.85211,7.6275 6.03219,11.30684 1.47573,2.45394 3.12428,4.81627 5.26281,6.73492 1.28496,1.12974 2.67717,1.87436 4.37986,2.03524 6.21421,-0.5955 11.71043,-0.14912 -16.0314,-0.0937 -0.16796,3.3e-4 0.33699,0.0167 0.50388,-0.002 0.46052,-0.0523 0.57668,-0.15835 1.00278,-0.36635 1.17648,-0.49627 2.03682,-1.29 2.75665,-2.32231 0.88097,-1.34275 1.40899,-2.85286 1.86544,-4.38001 0.58506,-2.2223 1.04676,-4.4759 1.43955,-6.73954 0.59212,-3.29985 0.80519,-6.6421 0.98731,-9.98385 0.11171,-3.75987 0.10736,-7.52179 -4.3e-4,-11.28141 -0.0515,-2.76215 -0.18969,-5.51427 -0.58661,-8.24886 -0.16904,-0.19006 -0.0369,-1.1864 -0.35834,-1.31466 -0.0501,-0.02 -0.14896,0.12959 -0.0951,0.13079 18.07353,0.40279 19.19965,-5.57218 17.79927,0.80783 -0.24048,1.66942 -0.30423,3.3587 -0.38228,5.0418 -0.10405,2.0088 0.0999,3.98144 0.46431,5.9524 0.47333,2.46722 1.0733,4.90647 1.76182,7.32182 0.85548,2.59851 1.89093,5.13572 3.12032,7.57906 1.21873,2.51815 2.58313,4.96214 3.95883,7.39702 1.16967,2.14931 2.7194,4.01336 4.44397,5.73252 1.51846,1.54731 3.34758,2.64813 5.30675,3.53591 0.38888,0.15858 1.33871,0.57143 1.77027,0.64988 0.88275,0.16048 1.9069,0.0673 2.7969,0.031 -5.59781,-0.0122 -11.19562,-0.0244 -16.79343,-0.0366 1.93073,-0.0923 3.5055,-0.89677 4.96867,-2.0956 1.61782,-1.54906 2.91734,-3.37148 4.09447,-5.26566 1.2392,-2.02303 1.71829,-4.24089 1.72614,-6.58241 -0.004,-2.63946 -0.88136,-5.04206 -2.01247,-7.38134 -1.47278,-2.86333 -3.78235,-5.19005 -6.06669,-7.41752 -2.3797,-2.24342 -4.91765,-4.30758 -7.473,-6.34532 -1.60653,-1.17715 -2.97009,-2.78026 -4.78643,-3.65268 -0.069,0.0235 -0.27955,0.0756 -0.20688,0.0704 23.24686,-1.65317 13.31357,-4.98732 19.52035,-0.28005 1.22282,0.78194 2.30404,1.74071 3.51546,2.54578 1.36572,1.03151 2.77504,1.99526 4.19489,2.94985 1.68685,0.84756 3.37236,1.71346 5.11693,2.43773 1.84281,0.74259 3.74772,1.31228 5.6758,1.78387 1.91772,0.52786 3.88442,0.71853 5.86278,0.80575 6.56919,-0.22629 0.20704,0.003 -16.03368,-0.0466 -0.26765,-8.2e-4 0.53592,-0.007 0.80226,-0.0333 0.79437,-0.0787 1.51096,-0.32076 2.2538,-0.59531 1.45717,-0.50803 2.78299,-1.29833 4.00547,-2.2294 1.24324,-1.02729 2.29899,-2.25522 3.31141,-3.50418 1.02895,-1.34374 1.73933,-2.88526 2.49705,-4.38834 0.81717,-1.56885 1.37976,-3.24618 1.8877,-4.93498 0.64404,-1.93706 1.09787,-3.927 1.62176,-5.89744 0.66577,-2.61765 1.31071,-5.24161 1.89658,-7.87851 0.59436,-2.69099 1.0249,-5.41343 1.51133,-8.12499 0.4699,-2.61792 1.09251,-5.19918 1.88054,-7.73844 0.72505,-2.32463 1.95782,-4.3972 3.39954,-6.33873 1.31779,-1.75305 2.96439,-3.17445 4.74415,-4.4339 1.75761,-1.29505 3.74881,-2.03177 5.85781,-2.50392 7.96749,-1.05453 16.19323,-1.34443 24.13501,-0.0259 2.19047,0.55264 4.26475,1.44576 6.27589,2.45914 1.94249,1.0984 3.73402,2.38925 5.36904,3.90459 1.69979,1.79524 2.69424,4.02639 3.58935,6.29257 0.95128,2.45606 1.68148,4.98574 2.32869,7.53599 0.65971,2.44908 1.06215,4.94481 1.36867,7.45849 0.36351,2.4419 0.36083,4.88326 0.0355,7.32405 -0.41803,2.9724 -1.59007,5.75041 -2.80358,8.47069 -1.25773,2.7088 -2.76271,5.29439 -4.36564,7.81123 -1.71055,2.86863 -4.23646,4.98373 -6.95045,6.85364 -2.64378,1.68121 -5.47699,3.02746 -8.22332,4.52693 -0.22741,0.13024 -0.45482,0.26047 -0.68222,0.39073 -1.94073,1.11174 0.87557,-1.39941 -0.59669,-1.54074 -5.75485,-0.55241 -11.56241,-0.0666 -17.34361,-0.0999 1.62811,-0.37808 3.09872,-1.242 4.53805,-2.06386 2.1386,-1.29722 4.17538,-2.75231 6.16759,-4.26222 2.16608,-1.66291 4.06361,-3.63303 6.04997,-5.49808 2.39721,-2.07737 4.29694,-4.60892 6.12746,-7.17788 2.11177,-3.04325 3.79844,-6.33258 5.30671,-9.70626 1.60319,-3.85461 3.01174,-7.78882 4.26669,-11.76967 1.28763,-4.11477 2.23141,-8.32284 3.08975,-12.54433 0.95217,-4.47063 1.08221,-9.03264 1.04448,-13.58459 -0.17953,-4.79741 -0.72529,-9.57084 -1.27984,-14.33642 -0.47391,-4.33535 -1.17301,-8.63679 -2.13943,-12.88861 -1.04028,-4.01258 -2.15232,-8.00849 -3.3519,-11.97645 -0.97382,-3.33472 -2.06652,-6.62571 -3.33576,-9.85862 -0.53493,-0.97364 -0.85965,-2.24532 -1.72728,-3.01616 -0.53524,-0.47553 -1.3712,-0.16845 -0.95473,-0.15964 5.84517,0.12378 11.69148,0.18545 17.53722,0.27817 -1.20462,-0.98343 7.1e-4,4.67812 0.0255,4.82184 1.44726,8.01183 3.57182,15.88651 5.48896,23.79579 1.79112,7.35254 3.40708,14.74638 4.96914,22.15051 1.20877,5.76291 2.25678,11.557 3.23716,17.36251 0.78266,4.62703 1.46962,9.26896 2.09721,13.91929 0.44914,3.30039 0.75214,6.62331 1.44465,9.88493 1.71898,6.83512 9.84482,2.14369 -17.32284,0.99245 -0.12413,-0.005 0.13654,-0.21148 0.17241,-0.33042 0.0756,-0.25086 0.10619,-0.51315 0.15928,-0.76973 0.39095,-3.27956 0.90514,-6.54252 1.38569,-9.80983 0.74873,-4.53828 1.45312,-9.08338 2.34534,-13.5962 0.84399,-3.99672 2.05431,-7.89206 3.84584,-11.56358 1.50878,-2.95066 3.55687,-5.55125 5.87348,-7.9016 1.94992,-2.0149 4.37116,-3.24831 6.99671,-4.12026 7.86698,-1.8401 17.41701,-3.75136 23.99852,1.36986 2.37509,2.13378 3.82131,5.02757 5.22603,7.84228 1.67385,3.3281 3.08044,6.7652 4.4027,10.24361 1.2594,3.41836 2.54145,6.82702 3.8688,10.21954 1.13654,2.95768 2.77647,5.6759 4.62102,8.23868 1.59042,2.32498 3.7319,4.07897 6.00984,5.68413 1.74569,1.20501 3.68733,2.05014 5.75979,2.48266 6.14536,0.019 13.94681,0.0236 -15.26328,-0.0631 -0.2671,-7.9e-4 0.53437,0.0105 0.8013,8.9e-4 0.48255,-0.0175 1.09572,-0.0893 1.57718,-0.13943 1.62637,-0.13735 3.01397,-0.92547 4.3691,-1.77043 1.47106,-0.97087 2.77773,-2.17501 4.01398,-3.42563 1.25768,-1.26634 2.16031,-2.79006 2.96152,-4.36923 0.90632,-1.78989 1.46829,-3.71173 1.94666,-5.65125 0.60023,-2.55602 0.95819,-5.15988 1.27683,-7.76333 0.28632,-3.12953 0.44888,-6.27219 0.49928,-9.41422 0.0538,-3.38077 -0.0815,-6.76045 -0.27161,-10.1351 -0.22794,-3.23271 -0.42355,-6.46777 -0.71384,-9.69566 0.23501,-0.1485 -0.71202,-2.8261 -0.82396,-2.76341 -0.15618,0.0875 -0.34498,0.50669 -0.16603,0.51068 5.93626,0.13236 11.87522,-0.0781 17.81284,-0.1172 -0.4273,1.72941 -0.23294,3.57434 -0.17944,5.33988 0.23719,3.075 0.59602,6.13714 1.09027,9.18107 0.50951,3.4199 1.55771,6.6991 2.76919,9.92483 1.15237,2.98261 2.82857,5.69777 4.66879,8.29592 1.63278,2.30057 3.57527,4.30555 5.79967,6.02771 1.77439,1.25324 3.77819,2.16979 5.95104,2.37357 6.57376,-0.5123 -0.22611,0.0413 -16.06179,-0.12011 -0.28061,-0.003 0.56118,-0.0479 0.83437,-0.11207 1.00678,-0.23633 1.62197,-0.8087 2.34664,-1.5042 1.88241,-2.2574 2.72997,-5.06809 3.43082,-7.86712 0.74276,-4.17033 0.58788,-8.4218 0.51176,-12.6363 -0.0399,-3.62884 -0.26306,-7.25145 -0.38984,-10.87721 -0.64052,-8.49228 15.31028,-8.56241 19.61248,-1.93129 1.48546,2.06241 2.5877,4.35995 3.73948,6.61666 1.38107,2.74966 2.52352,5.61358 3.64504,8.47687 0.91196,2.56824 2.34,4.87274 3.77283,7.17074 1.26733,2.29438 2.64655,4.51522 4.1604,6.65389 1.49075,2.34101 3.28691,4.42166 5.27095,6.35107 1.87694,1.82985 3.98974,3.36364 6.19586,4.76617 1.87682,1.19907 3.92789,1.97181 6.12567,2.29395 -1.19392,0.32445 4.39623,0.13174 2.90083,0.1256 -29.33791,-0.12044 -21.08026,0.35513 -14.96677,-0.1449 1.95385,-0.15683 3.75674,-0.87343 5.49655,-1.72881 2.01879,-0.96209 3.76948,-2.30583 5.36728,-3.85293 1.8747,-1.78648 3.11997,-3.97186 4.14007,-6.32145 1.18597,-2.79203 1.63979,-5.80116 1.88808,-8.80274 0.2889,-2.81657 -0.004,-5.61254 -0.46938,-8.38908 -0.42616,-2.68857 -1.13316,-5.31922 -1.96214,-7.90848 -0.94154,-2.43097 -1.91745,-4.84849 -2.8372,-7.28791 -0.45486,-1.01025 -0.61617,-2.18679 -1.26261,-3.1113 -0.0999,-0.14291 -0.21803,-0.30123 -0.38373,-0.35562 -0.10473,-0.0344 -0.41435,0.12815 -0.30413,0.12985 5.8994,0.0911 11.79985,0.0925 17.69978,0.13882 -0.56269,2.69978 -0.27974,5.56534 -0.21086,8.31217 0.10114,4.864 0.21207,9.72796 0.23637,14.59304 0.0758,6.10535 -0.26806,12.20166 -0.7436,18.28548 -0.47241,6.81532 -1.41221,13.58288 -2.38784,20.34053 -0.9565,6.33386 -2.34443,12.58528 -4.0704,18.75066 -1.80621,6.43772 -4.49583,12.5651 -7.18427,18.66976 -2.4731,5.64587 -5.21671,11.16768 -7.99693,16.66703 -2.09852,4.15465 -4.22757,8.29454 -6.40744,12.40717 -0.71483,1.30848 -1.38235,2.64364 -2.00768,3.99719 -0.1083,0.23444 -0.21887,0.46827 -0.31203,0.70913 -0.0235,0.0607 -0.0418,0.25673 -0.0365,0.19186 0.0329,-0.40147 0.0795,-0.8017 0.11927,-1.20255 -5.88013,-0.0239 -11.76196,0.0718 -17.64038,-0.0717 -0.22484,-0.005 0.41042,-0.19702 0.57994,-0.34482 0.27227,-0.2374 0.50353,-0.51929 0.73201,-0.79907 1.07151,-1.31213 1.88185,-2.80392 2.72298,-4.26586 3.23052,-5.62774 5.59457,-11.67557 7.80174,-17.75907 2.77838,-7.91309 4.67269,-16.09381 6.43882,-24.28034 1.73094,-7.97985 2.75492,-16.08951 3.46263,-24.21721 0.58084,-7.37433 0.83442,-14.76659 1.02889,-22.15922 0.11671,-6.70924 0.0769,-13.4197 0.0851,-20.12957 -0.099,-6.07759 0.3153,-12.12603 1.1521,-18.14103 0.76232,-5.31427 2.68202,-10.3205 4.97591,-15.13912 2.21379,-4.55622 5.39223,-8.43532 9.00012,-11.94149 3.50135,-3.29161 7.63427,-5.64292 11.98981,-7.58957 7.55556,-2.47817 17.87255,-5.10653 24.40788,0.0522 1.47878,1.1673 1.71058,1.82985 2.76103,3.4346 2.90818,5.44881 4.66302,11.44017 6.09476,17.42255 0.68772,4.31465 1.18092,8.8001 0.41954,13.14907 -0.46638,2.66394 -1.09607,4.0359 -2.02015,6.56082 -2.62926,6.20374 -6.6042,11.66086 -10.64362,17.00181 -1.6648,2.14371 -3.30876,4.30311 -4.94096,6.47166 0,0 -17.49317,-1.1369 -17.49317,-1.1369 l 0,0 c 1.66426,-2.17682 3.33968,-4.34486 5.05822,-6.47935 4.06313,-5.1493 8.03127,-10.4388 10.69536,-16.47689 0.90163,-2.36239 1.50919,-3.62166 1.96436,-6.11507 0.75767,-4.15044 0.31219,-8.4466 -0.39254,-12.56201 -1.42131,-5.77665 -3.11751,-11.63534 -6.3218,-16.70264 -1.04674,-1.20065 -1.37387,-1.86321 -2.81788,-2.52259 -0.47568,-0.21721 -2.03782,-0.38437 -1.51533,-0.40602 5.29735,-0.21952 10.60288,-0.14129 15.90455,-0.19023 0.58744,-0.005 -1.18081,-0.0301 -1.76137,0.0597 -0.63662,0.0984 -1.24428,0.33414 -1.86642,0.5012 -4.34004,1.73267 -8.50614,3.81133 -12.02308,6.95338 -3.57365,3.2907 -6.75782,6.93819 -8.96071,11.31178 -2.31059,4.62747 -4.25526,9.44727 -5.05116,14.59082 -0.86905,5.9301 -1.32715,11.89545 -1.26125,17.89454 -10e-4,6.72599 -0.0193,13.45276 -0.14092,20.17776 -0.22902,7.42718 -0.545,14.85159 -1.15783,22.25866 -0.71155,8.20107 -1.78073,16.38063 -3.52395,24.43171 -1.77756,8.24934 -3.69888,16.485 -6.34614,24.5056 -2.14415,6.13656 -4.38757,12.25094 -7.3583,18.04641 -5.42699,10.67706 -3.08776,6.4668 -22.05521,6.74342 -0.0577,-0.44086 -0.16692,-0.87801 -0.17298,-1.32258 -0.017,-1.24961 2.40188,-4.15001 2.77273,-5.39276 2.28197,-4.07182 4.42551,-8.21981 6.59115,-12.35415 2.84215,-5.45863 5.67918,-10.92709 8.16796,-16.55833 2.66863,-6.02035 5.29539,-12.08065 7.0943,-18.43016 1.74794,-6.08747 3.11818,-12.26819 4.12564,-18.52302 1.00333,-6.71216 1.94077,-13.44044 2.37684,-20.21767 0.4347,-6.03802 0.7032,-12.08803 0.57557,-18.14344 -0.0425,-4.85085 -0.20866,-9.6996 -0.41264,-14.54621 -0.12742,-3.07092 -0.45151,-6.17038 -0.0968,-9.23391 18.11012,-1.01327 16.73891,-6.03932 20.09136,3.4158 0.93608,2.46858 1.94699,4.90894 2.83068,7.39705 0.80403,2.67984 1.53064,5.38746 1.95101,8.15784 0.4594,2.92166 0.74681,5.86683 0.4467,8.82447 -0.26816,3.17349 -0.7395,6.365 -1.90531,9.34715 -0.99432,2.56044 -2.14949,5.01675 -4.0999,7.00578 -1.57226,1.71382 -3.28225,3.31776 -5.36657,4.397 -1.73662,1.02956 -3.56744,1.96247 -5.55753,2.38029 -7.69226,1.41459 -15.78156,1.34561 -23.45676,-0.14159 -2.19952,-0.66328 -4.26795,-1.60453 -6.14365,-2.95012 -2.21075,-1.53052 -4.32293,-3.19666 -6.19899,-5.13131 -1.96802,-2.05967 -3.73396,-4.27562 -5.30291,-6.65641 -1.50016,-2.18553 -2.8507,-4.46037 -4.17767,-6.75443 -1.45386,-2.39147 -2.8059,-4.83991 -3.7384,-7.49022 -1.10273,-2.8082 -2.23531,-5.61256 -3.63516,-8.28863 -1.1317,-2.13491 -2.23096,-4.34775 -3.90781,-6.11721 -5.5257,-3.34042 0.60066,0.47763 16.99074,-0.11678 0.28096,-0.0102 -0.0938,-0.56936 -0.24288,-0.80771 -0.12505,-0.19989 -0.39934,0.31887 -0.44441,0.5503 -0.06,0.30789 -0.0703,0.62338 -0.10549,0.93508 -0.0587,3.61985 0.0993,7.24066 0.15134,10.85983 0.0935,4.36436 0.18736,8.74514 -0.39586,13.08421 -0.68573,3.05107 -1.53487,6.09768 -3.32075,8.71252 -4.91859,6.87455 -14.73667,4.69137 -22.74334,2.9209 -2.18119,-0.69903 -4.20869,-1.74279 -5.95561,-3.24481 -2.19816,-1.92037 -4.12044,-4.11186 -5.7669,-6.52591 -1.85137,-2.7505 -3.52146,-5.61325 -4.65807,-8.74323 -1.20753,-3.34159 -2.24422,-6.73746 -2.7672,-10.26234 -0.51773,-3.11711 -0.943,-6.24779 -1.2193,-9.3964 -0.10632,-2.04922 -0.29332,-4.12419 0.0121,-6.16424 15.79519,-0.94707 18.0362,-6.44196 19.04681,2.99132 0.18043,3.24186 0.3968,6.48122 0.62195,9.72027 0.21195,3.41756 0.32394,6.84155 0.28129,10.26609 -0.0428,3.20354 -0.16376,6.4072 -0.43681,9.60016 -0.31155,2.66883 -0.63898,5.34018 -1.20627,7.96927 -0.47395,2.06412 -0.98642,4.129 -1.90767,6.04821 -0.81772,1.73705 -1.70775,3.45285 -2.98741,4.90259 -1.23491,1.39167 -2.60553,2.65498 -4.03726,3.83869 -1.3809,0.98332 -2.81149,2.02215 -4.44161,2.52491 -7.36837,1.70685 -15.39569,1.86581 -22.71756,-0.003 -2.0644,-0.7518 -4.00239,-1.76546 -5.73298,-3.13314 -2.29944,-1.79563 -4.38918,-3.80546 -5.99611,-6.26397 -1.83207,-2.7191 -3.48126,-5.56604 -4.59483,-8.66341 -1.30665,-3.39835 -2.56487,-6.81427 -3.82694,-10.22941 -1.31598,-3.41949 -2.76373,-6.78093 -4.4331,-10.04519 -1.3766,-2.57735 -2.7944,-5.26205 -5.30533,-6.90958 -0.85191,-0.44188 -1.00796,-0.60628 -1.93681,-0.7805 -0.32855,-0.0616 -1.33254,-0.092 -0.99828,-0.0956 30.03152,-0.32038 20.50887,-0.54129 14.45953,0.0492 -2.55413,0.55941 -5.00873,1.43628 -6.97778,3.22746 -2.32497,2.13055 -4.36915,4.54563 -5.91283,7.30956 -1.86021,3.4834 -3.0791,7.22846 -3.94271,11.07979 -0.92688,4.46716 -1.6162,8.97454 -2.30025,13.48446 -0.41469,3.2705 -0.90521,6.53622 -1.07944,9.83138 -0.0738,0.74611 -0.16797,1.8141 -0.23075,1.8178 -16.10262,0.94797 -17.4119,5.93494 -18.64988,-1.66576 -0.44602,-3.31336 -0.72805,-6.64681 -1.17052,-9.96088 -0.59021,-4.63027 -1.2361,-9.25342 -1.96295,-13.86437 -0.92354,-5.78281 -1.92432,-11.55325 -3.06434,-17.29772 -1.46502,-7.38926 -2.99223,-14.76694 -4.72504,-22.09878 -1.88921,-7.99172 -3.84181,-15.97511 -6.14401,-23.85906 -0.53028,-2.49495 -1.29206,-5.14887 -0.19991,-7.59584 15.09263,0.0854 17.16481,-4.6442 20.81603,4.67907 1.24577,3.28358 2.3152,6.62594 3.26898,10.00624 1.1508,4.0143 2.27364,8.03826 3.28726,12.08959 0.97817,4.31372 1.66507,8.67802 2.10881,13.08005 0.55188,4.82664 1.04207,9.66539 1.25937,14.52011 0.0586,4.67162 -0.0417,9.358 -0.98577,13.9527 -0.85104,4.28311 -1.81043,8.55101 -3.09751,12.72689 -1.24453,4.04316 -2.64665,8.03723 -4.21826,11.96533 -1.49009,3.49304 -3.17303,6.88809 -5.27957,10.05825 -1.82093,2.66149 -3.65919,5.3655 -6.04422,7.56122 -2.03312,1.87697 -3.95984,3.86624 -6.07214,5.65641 -1.9741,1.5692 -4.01475,3.04819 -6.08617,4.48514 -1.46225,0.92058 -2.95843,1.78236 -4.50177,2.56077 -6.2431,0.0745 -21.1807,3.69928 -18.62391,-1.99674 0.25036,-0.55775 1.14111,-0.70339 1.56679,-1.01815 2.78276,-1.4834 5.66288,-2.77826 8.39218,-4.36166 2.6303,-1.60973 5.1123,-3.48824 6.78727,-6.13061 1.6303,-2.40773 3.09673,-4.92307 4.37861,-7.53413 1.1745,-2.54433 2.34725,-5.14109 2.70613,-7.94792 0.30056,-2.29147 0.33842,-4.57673 -0.0232,-6.86955 -0.30418,-2.43667 -0.71512,-4.85463 -1.35171,-7.22947 -0.6401,-2.46838 -1.36034,-4.91973 -2.31666,-7.28679 -0.87357,-2.03035 -1.89638,-4.00776 -3.61028,-5.46548 -1.62518,-1.3386 -3.38155,-2.51175 -5.29029,-3.41165 -1.98881,-0.87492 -4.04556,-1.66415 -6.22346,-1.8894 -6.08935,-0.47411 -14.86089,-0.0184 14.51287,-0.12402 2.07286,-0.007 -5.18169,-0.26694 -3.17764,0.0732 -2.03171,0.21982 -4.02519,0.6163 -5.76461,1.75674 -1.74258,1.0756 -3.39708,2.26999 -4.71555,3.85975 -1.42671,1.71886 -2.66374,3.57077 -3.40463,5.69739 -0.79606,2.4621 -1.44365,4.96178 -1.90766,7.50983 -0.49902,2.73241 -0.91393,5.4803 -1.51258,8.1936 -0.58403,2.65551 -1.25073,5.29088 -1.83743,7.94577 -0.50524,1.98938 -0.92227,4.00354 -1.56995,5.95475 -0.51299,1.78862 -1.06902,3.57524 -1.8812,5.25441 -0.78855,1.59316 -1.5415,3.2125 -2.5115,4.70605 -0.97002,1.40739 -2.12526,2.68896 -3.32869,3.90014 -1.20249,1.14991 -2.55977,2.1228 -4.07197,2.83111 -7.46827,3.09313 -12.59809,2.70142 -22.61831,1.2059 -1.99321,-0.2041 -3.95699,-0.59528 -5.8846,-1.14503 -1.94768,-0.56824 -3.87681,-1.20952 -5.72163,-2.06133 -1.76444,-0.83794 -3.55348,-1.6564 -5.18029,-2.74589 -1.42177,-0.96186 -2.78831,-2.00121 -4.2002,-2.97753 -1.2139,-0.88568 -2.42637,-1.77638 -3.60819,-2.70204 -5.86608,-5.40316 3.58426,-2.17644 16.46354,-3.38266 0.10203,-0.01 0.12511,0.16234 0.18766,0.24351 1.49671,1.29849 2.98976,2.60171 4.52791,3.8514 2.54361,2.09841 5.08469,4.20621 7.42678,6.53207 2.37097,2.41677 4.72633,4.94348 6.19395,8.03251 1.1738,2.59474 2.04248,5.28147 2.06216,8.16274 10e-4,2.65368 -0.44754,5.18878 -1.72703,7.55215 -1.19652,2.03263 -2.5071,3.9851 -4.09072,5.74185 -1.4159,1.54001 -2.99351,2.78424 -5.07979,3.25577 -7.11045,0.0669 -16.32113,2.28498 -23.34227,-1.28817 -1.97003,-1.12214 -3.7963,-2.44734 -5.32356,-4.13998 -1.7137,-1.88797 -3.24039,-3.92187 -4.43494,-6.1835 -1.36545,-2.46803 -2.69781,-4.95486 -3.92923,-7.49305 -1.23043,-2.56107 -2.33203,-5.1908 -3.18052,-7.9049 -0.67978,-2.47099 -1.28462,-4.96305 -1.79133,-7.47552 -0.40523,-2.10406 -0.62208,-4.21906 -0.52493,-6.36567 0.0741,-1.75746 0.13757,-3.51724 0.31169,-5.26829 0.97745,-7.17391 19.09293,-7.07476 18.62725,0.47297 0.25137,2.79728 0.2515,5.60527 0.33894,8.41089 0.0926,3.80426 0.11518,7.60955 -0.007,11.41375 -0.14362,3.40644 -0.32376,6.81582 -0.85266,10.18852 -0.36132,2.33295 -0.79631,4.65231 -1.334,6.95168 -0.4656,1.68345 -0.96286,3.36243 -1.8404,4.8868 -0.7302,1.27664 -1.48957,2.50116 -2.79669,3.26329 -0.361,0.20658 -1.18313,1.01027 -1.58405,1.02112 -4.20301,0.11383 -13.4637,1.62375 -19.66515,-0.1192 -1.677,-0.65657 -3.11327,-1.724 -4.3695,-3.0113 -2.00847,-2.17444 -3.64705,-4.63913 -5.08722,-7.22235 -2.10699,-3.73955 -4.01716,-7.57909 -5.94316,-11.41413 -2.22208,-4.4715 -4.43179,-8.95021 -6.47557,-13.50687 -2.50812,-5.42383 -4.99954,-10.8553 -7.48871,-16.28784 -2.64973,-5.82762 -5.29444,-11.65762 -8.13884,-17.39391 -2.48734,-5.22574 -4.94908,-10.46344 -7.51828,-15.64993 -2.36072,-4.75086 -4.81731,-9.46099 -7.53564,-14.01851 -2.20695,-3.32865 -4.67613,-6.46864 -7.84946,-8.9414 -2.70891,-2.05446 -5.55207,-4.01546 -8.77536,-5.17186 -0.4647,-0.11989 -0.92263,-0.27001 -1.3941,-0.35968 -0.43511,-0.0828 -1.76235,-0.14903 -1.31949,-0.15644 36.89265,-0.61752 18.06378,-1.04197 13.09913,0.3688 -2.29641,0.75779 -4.40591,1.87642 -5.87374,3.86768 -1.31399,2.66899 -1.7741,5.55235 -1.75577,8.52065 -0.0384,4.05373 0.1,8.1058 0.63583,12.12964 0.75808,4.84724 1.72708,9.65941 2.9956,14.40084 1.43213,5.37985 2.97043,10.73998 5.00528,15.92844 1.83741,4.55098 3.83665,9.03205 6.05943,13.40939 0.2467,0.45674 0.48674,0.91714 0.74008,1.37023 0.19801,0.35411 1.01533,0.99311 0.61378,1.05104 -19.64721,2.83426 -15.40688,6.421 -18.77892,-1.23091 -1.77724,-3.9995 -3.46139,-8.04838 -5.56614,-11.89194 -2.27421,-4.16524 -4.61139,-8.29892 -7.17974,-12.29172 -2.39163,-3.71843 -4.76912,-7.45628 -7.54989,-10.90213 -2.288,-2.84203 -4.59761,-5.73562 -7.54125,-7.93482 -0.72029,-0.41946 -1.16641,-0.75662 -1.96985,-0.95801 -0.26826,-0.0672 -1.10136,-0.0869 -0.82482,-0.0897 29.46267,-0.29635 21.76466,-0.31341 15.72687,-0.0621 -1.61145,0.28486 -2.79527,1.27692 -3.6413,2.66469 -1.24184,2.42243 -2.15681,5.00597 -2.57215,7.7045 -0.41624,4.15924 -0.42643,8.34291 0.0773,12.49894 0.79112,6.01745 1.9004,11.98451 3.05095,17.94254 1.39118,7.02854 2.91041,14.03065 4.93371,20.90935 1.9758,7.24375 4.00259,14.48056 6.36684,21.6084 2.06426,6.04058 4.3494,11.99887 6.85484,17.87115 1.37774,3.40862 2.88203,6.76901 4.12961,10.22782 0.0245,0.0761 0.75317,2.37275 0.62932,2.38589 -21.09427,2.23891 -15.33501,6.4974 -18.45786,0.43071 -0.91844,-1.72457 -1.82244,-3.45681 -2.74645,-5.17843 -1.84163,-3.7491 -3.46408,-7.59915 -5.15939,-11.41555 -2.26348,-5.08251 -4.43482,-10.20524 -6.75229,-15.26381 -2.78363,-6.27596 -5.60412,-12.53503 -8.48228,-18.76827 -2.6608,-5.91485 -5.37817,-11.80565 -8.27745,-17.6081 -2.78649,-5.53905 -5.54231,-11.09905 -8.598,-16.49633 -2.00089,-3.46264 -4.06068,-6.8986 -5.77621,-10.51597 -3.07303,-5.99418 -0.57259,-0.63329 17.67201,-1.37672 0.21663,-0.009 -4.3e-4,0.43437 0.0215,0.65007 0.25715,2.53267 -0.1057,-0.63911 0.30547,2.80794 0.52697,5.36796 0.86339,10.7514 1.0019,16.14409 0.2209,6.86795 0.40938,13.74452 0.19271,20.6149 -0.25118,7.17226 -0.60786,14.35889 -1.75076,21.45416 -1.1121,6.76074 -2.34378,13.51313 -4.11017,20.13808 -1.33593,4.63549 -2.82501,9.28469 -5.3189,13.44766 -1.18249,1.94763 -2.52158,3.7926 -3.62725,5.7818 0,0 -18.08875,-0.83928 -18.08875,-0.83928 z"
       inkscape:connector-curvature="0" />
  </g>
</svg>
